<?xml version="1.0" encoding="UTF-8"?>
<!-- Generator: Adobe Illustrator 19.2.0, SVG Export Plug-In . SVG Version: 6.00 Build 0)  -->
<svg version="1.1" id="Layer_1" xmlns="http://www.w3.org/2000/svg" xmlns:xlink="http://www.w3.org/1999/xlink" x="0px" y="0px" viewBox="0 0 136.6 61.2" style="enable-background:new 0 0 136.6 61.2;" xml:space="preserve">
<style type="text/css">
	.st0{fill:#FFFFFF;}
	.st1{fill:none;stroke:#FFFFFF;stroke-width:0.8;}
</style>
<path class="st0" d="M25,29.9h-3.6L21.1,28c-1.5,1.7-4,2.2-6,2.2c-6.5,0-10.7-4-10.7-8.9c0-5,4.2-8.9,10.7-8.9  c4.4,0,9.2,1.9,9.7,6.2h-5.6c-0.2-1.5-2-2.4-4.2-2.4c-3.6,0-5,2.5-5,5.1c0,2.5,1.4,5.1,5,5.1c2.8,0,4.6-1,4.9-2.6H16v-3.3h9V29.9z"/>
<path class="st0" d="M31.2,24.7c0.1,1.7,1.3,2.8,3.5,2.8c1.2,0,2.4-0.5,2.9-1.4h4.8c-0.9,2.9-4.3,4.1-7.7,4.1  c-5.1,0-8.5-2.4-8.5-6.6c0-3.8,3.8-6.6,8.4-6.6c5.6,0,8.4,3.4,8.1,7.6H31.2z M37.5,22.4c-0.1-1.4-1.3-2.5-3-2.5c-1.8,0-3,1-3.3,2.5  H37.5z"/>
<path class="st0" d="M51.6,17.1c4.8,0,8.2,2.9,8.2,6.6c0,3.7-3.4,6.6-8.2,6.6c-4.8,0-8.2-2.8-8.2-6.6C43.4,19.9,46.8,17.1,51.6,17.1  z M51.6,27.1c2.4,0,3.1-1.9,3.1-3.5c0-1.6-0.8-3.5-3.1-3.5c-2.4,0-3.1,1.9-3.1,3.5C48.5,25.3,49.2,27.1,51.6,27.1z"/>
<path class="st0" d="M60.7,17.4h4.9v2.2h0.1c0.8-1.6,2.5-2.4,4.7-2.4c0.4,0,0.8,0,1.2,0.1V21c-0.7-0.1-1.3-0.2-1.9-0.2  c-2.5,0-3.8,1.4-3.8,3v6.2h-5.1V17.4z"/>
<path class="st0" d="M87.8,28.4c0,2-0.5,5.9-7.8,5.9c-3.6,0-7-0.6-7.7-4h5.1c0.1,0.6,0.4,0.9,0.9,1.1c0.4,0.2,1.1,0.3,1.9,0.3  c2.4,0,2.7-1.4,2.7-2.9v-1.2h-0.1c-0.9,1.2-2.5,1.8-4.1,1.8c-4.7,0-6.8-2.7-6.8-6.2c0-3.3,2.4-6.1,6.8-6.1c1.9,0,3.3,0.6,4.2,1.9  h0.1v-1.6h4.9V28.4z M79.9,20.2c-2.2,0-3,1.6-3,3.1c0,1.5,0.8,2.9,2.9,2.9c2.2,0,3.1-1.3,3.1-2.9C83,21.8,82.2,20.2,79.9,20.2z"/>
<path class="st0" d="M89.8,17.4h5.1v12.5h-5.1V17.4z M94.9,15.9h-5.1v-3.1h5.1V15.9z"/>
<path class="st0" d="M96.4,21.3c0.1-1.6,1-2.7,2.4-3.3c1.4-0.6,3.2-0.9,4.9-0.9c3.7,0,7.3,0.6,7.3,4.2v5.4c0,1.1,0,2.2,0.6,3.2h-5.1  c-0.2-0.4-0.2-0.8-0.3-1.2c-1.3,1.1-3.3,1.5-5.1,1.5c-3,0-5.3-1.2-5.3-3.8c0-4.1,5.5-3.7,9.1-4.3c0.9-0.1,1.3-0.4,1.3-1.2  c0-0.9-1.4-1.3-2.5-1.3c-1.4,0-2.3,0.5-2.6,1.6H96.4z M103,27.7c2.4,0,3.2-1.1,3.1-3.7c-0.7,0.4-2,0.4-3.1,0.7  c-1.1,0.2-2.1,0.6-2.1,1.6C100.8,27.3,101.8,27.7,103,27.7z"/>
<path class="st0" d="M65.3,36.8h-6.4v13.3h-5.6V36.8h-6.4V33h18.4V36.8z"/>
<path class="st0" d="M65.9,44.9c0.1,1.7,1.3,2.8,3.5,2.8c1.2,0,2.4-0.5,2.9-1.4H77c-0.9,2.9-4.3,4.1-7.7,4.1c-5.1,0-8.5-2.4-8.5-6.6  c0-3.8,3.8-6.6,8.4-6.6c5.6,0,8.4,3.4,8.1,7.6H65.9z M72.2,42.6c-0.1-1.4-1.3-2.5-3-2.5c-1.8,0-3,1-3.3,2.5H72.2z"/>
<path class="st0" d="M89.3,42.2c0-1.1-1.2-1.8-2.5-1.8c-2.8,0-3.3,1.9-3.3,3.7c0,1.6,0.9,3.3,3,3.3c1.8,0,2.7-0.8,2.9-2.1h4.9  c-0.5,3.3-3.7,5.3-7.8,5.3c-4.7,0-8.2-2.6-8.2-6.4c0-4,3.1-6.8,8.2-6.8c3.9,0,7.3,1.6,7.7,4.9H89.3z"/>
<path class="st0" d="M95.5,33h5.1v6.4h0.1c0.8-1.3,2.9-2.1,4.7-2.1c5.2,0,5.6,3,5.6,4.8v8h-5.1v-6c0-1.7,0.2-3.4-2.5-3.4  c-1.9,0-2.8,1.3-2.8,2.7v6.8h-5.1V33z"/>
<g>
	<path class="st0" d="M131.3,55.1c0.8,0,1.5,0.7,1.5,1.5c0,0.8-0.7,1.5-1.5,1.5c-0.8,0-1.5-0.7-1.5-1.5   C129.8,55.7,130.4,55.1,131.3,55.1z M131.3,58c0.8,0,1.4-0.6,1.4-1.4c0-0.8-0.6-1.4-1.4-1.4c-0.8,0-1.4,0.6-1.4,1.4   C129.9,57.4,130.5,58,131.3,58z M130.8,55.7h0.6c0.4,0,0.6,0.2,0.6,0.5c0,0.3-0.2,0.4-0.4,0.4l0.5,0.8h-0.1l-0.5-0.8   c0,0-0.1,0-0.1,0h-0.4v0.8h-0.1V55.7z M131.3,56.6c0.2,0,0.6,0,0.6-0.4c0-0.3-0.2-0.4-0.5-0.4h-0.5v0.8H131.3z"/>
</g>
<polygon class="st1" points="117.8,34 123.1,53.8 117.8,53.8 117.8,34 "/>
<polygon class="st1" points="128.4,34 123.1,53.8 128.4,53.8 128.4,34 "/>
<polyline class="st1" points="125.7,43.6 123.1,4 120.5,43.6 "/>
<rect x="117.8" y="55.8" class="st1" width="10.6" height="2"/>
</svg>